<svg xmlns="http://www.w3.org/2000/svg" width="340" height="87" viewBox="0 0 340 87">
  <g fill="none" fill-rule="evenodd">
    <g fill="#23224C" fill-rule="nonzero">
      <path d="M.581843318 26.28L.581843318 25.9C1.12423963 25.78 1.49898618 25.54 1.70608295 25.21 1.91317972 24.88 2.02165899 24.34 2.02165899 23.62L2.02165899 3.82C2.02165899 3.09 1.91317972 2.56 1.70608295 2.23 1.49898618 1.89 1.12423963 1.66.581843318 1.54L.581843318 1.16 9.01364055 1.16C11.8538249 1.16 14.2896774 1.66 16.3310599 2.66 18.3823041 3.66 19.9601843 5.1 21.0647005 6.97 22.1692166 8.85 22.7313364 11.1 22.7313364 13.72 22.7313364 16.34 22.1790783 18.56 21.0647005 20.43 19.9503226 22.31 18.3724424 23.75 16.3310599 24.76 14.2896774 25.77 11.8439631 26.28 9.01364055 26.28L.581843318 26.28zM5.71981567 25.38L9.01364055 25.38C12.1398157 25.38 14.5263594 24.39 16.1732719 22.4 17.8103226 20.41 18.6288479 17.52 18.6288479 13.72 18.6288479 9.92 17.8004608 6.99 16.1535484 5.02 14.4967742 3.04 12.1200922 2.06 9.01364055 2.06L5.71981567 2.06 5.71981567 25.39 5.71981567 25.38zM24.9107834 1.15L32.1986175 1.15C35.2360369 1.15 37.5831336 1.67 39.2596313 2.71 40.936129 3.75 41.7743779 5.2 41.7743779 7.08 41.7743779 8.73 41.2122581 10.06 40.0781567 11.07 38.9440553 12.08 37.3168664 12.73 35.1965899 13L35.1965899 13.11C36.182765 13.34 36.9815668 13.6 37.6028571 13.92 38.2142857 14.23 38.7369585 14.63 39.1511521 15.1 39.5653456 15.57 39.9302304 16.19 40.2260829 16.94L42.6717972 22.57C42.9873733 23.27 43.2832258 23.85 43.5396313 24.29 43.7960369 24.74 44.0623041 25.08 44.3384332 25.3 44.6145622 25.52 44.9301382 25.73 45.3048848 25.9L45.3048848 26.28 43.4508756 26.21C42.6619355 26.19 42.0110599 26.08 41.4883871 25.89 40.9657143 25.7 40.5317972 25.38 40.1767742 24.93 39.8217512 24.48 39.4568664 23.85 39.0821198 23.05L36.1630415 17.01C35.7389862 16.06 35.3445161 15.35 34.9599078 14.87 34.5752995 14.4 34.121659 14.08 33.5891244 13.91 33.0565899 13.74 32.3465438 13.67 31.4589862 13.67L30.0586175 13.67 30.0586175 23.61C30.0586175 24.34 30.1670968 24.87 30.3939171 25.2 30.6207373 25.53 30.9954839 25.77 31.5378802 25.89L31.5378802 26.27 24.9206452 26.27 24.9206452 25.89C25.4630415 25.77 25.837788 25.53 26.0448848 25.2 26.2519816 24.87 26.3604608 24.33 26.3604608 23.61L26.3604608 3.81C26.3604608 3.08 26.2519816 2.55 26.0448848 2.22 25.837788 1.88 25.4630415 1.65 24.9206452 1.53L24.9206452 1.15 24.9107834 1.15zM30.0487558 2.05L30.0487558 12.78 32.415576 12.78C34.1413825 12.78 35.4924424 12.28 36.4687558 11.28 37.4450691 10.28 37.9282949 8.87 37.9282949 7.04 37.9282949 3.71 36.0151152 2.05 32.1986175 2.05L30.0586175 2.05 30.0487558 2.05zM53.2140092 26.28L53.2140092 25.9C53.9043318 25.63 54.4368664 25.22 54.8214747 24.7 55.2060829 24.18 55.482212 23.45 55.6498618 22.53 55.8175115 21.61 55.9062673 20.42 55.9062673 18.97L55.9062673 2.39 56.9811982 2.39 56.9811982 18.89C56.9811982 20.27 57.0896774 21.4 57.3164977 22.3 57.543318 23.2 57.9082028 23.93 58.4308756 24.49 58.9535484 25.05 59.6537327 25.52 60.5412903 25.9L60.5412903 26.28 53.2140092 26.28 53.2140092 26.28zM72.8191705 26.54L56.3204608 4.3 55.5808295 3.29C55.3342857 2.91 55.0976037 2.62 54.8806452 2.41 54.6538249 2.2 54.4368664 2.02 54.2100461 1.87 53.9832258 1.72 53.7564055 1.61 53.5098618 1.53L53.5098618 1.15 58.6478341 1.15 73.036129 20.62 73.3714286 26.55 72.8191705 26.55 72.8191705 26.54zM73.3714286 26.54L72.2964977 25.41 72.2964977 7.59C72.2964977 6.39 72.1978802 5.4 72.0006452 4.61 71.8034101 3.82 71.4681106 3.18 71.0046083 2.7 70.541106 2.21 69.8902304 1.82 69.0815668 1.52L69.0815668 1.14 75.7776959 1.14 75.7776959 1.52C75.215576 1.8 74.7520737 2.16 74.4069124 2.61 74.0617512 3.06 73.8053456 3.67 73.6278341 4.43 73.4503226 5.19 73.3714286 6.2 73.3714286 7.45L73.3714286 26.54 73.3714286 26.54zM77.9176959 26.28L77.9176959 25.9C78.4305069 25.78 78.8052535 25.55 79.0320737 25.22 79.258894 24.9 79.3673733 24.36 79.3673733 23.61L79.3673733 3.81C79.3673733 3.06 79.258894 2.52 79.0320737 2.2 78.8052535 1.88 78.4403687 1.65 77.9176959 1.53L77.9176959 1.15 84.5349309 1.15 84.5349309 1.53C83.9925346 1.65 83.6079263 1.88 83.3909677 2.2 83.1641475 2.53 83.0556682 3.06 83.0556682 3.81L83.0556682 23.61C83.0556682 24.36 83.1641475 24.9 83.3909677 25.22 83.617788 25.55 83.9925346 25.77 84.5349309 25.9L84.5349309 26.28 77.9176959 26.28 77.9176959 26.28zM98.6470968 26.65C96.3295853 26.65 94.278341 26.09 92.4835023 24.98 90.6985253 23.87 89.2981567 22.34 88.2823963 20.4 87.2666359 18.46 86.7636866 16.24 86.7636866 13.74 86.7636866 11.89 87.0496774 10.18 87.6117972 8.6 88.1739171 7.02 88.9825806 5.66 90.0180645 4.49 91.0535484 3.33 92.256682 2.41 93.6274654 1.75 94.9982488 1.09 96.4775115.76 98.084977.76 99.0514286.76 99.8995392.84 100.639171 1 101.378802 1.16 102.029677 1.33 102.601659 1.49 103.163779 1.65 103.637143 1.73 104.011889 1.73 104.652903 1.73 105.165714 1.47 105.560184.94L105.856037.94 106.299816 8.82 105.895484 8.82C105.057235 6.52 103.962581 4.74 102.621382 3.47 101.280184 2.21 99.8206452 1.58 98.2329032 1.58 96.6451613 1.58 95.4223041 2.02 94.317788 2.89 93.2132719 3.76 92.3552995 5.02 91.743871 6.66 91.1423041 8.3 90.8365899 10.24 90.8365899 12.49 90.8365899 15.04 91.1817512 17.32 91.8720737 19.33 92.5623963 21.34 93.4992627 22.93 94.6826728 24.08 95.8660829 25.23 97.2072811 25.8 98.716129 25.8 100.520829 25.8 102.000092 25.15 103.153917 23.85 104.307742 22.55 105.333364 20.42 106.220922 17.47L106.6647 17.47 106.181475 26.43 105.885622 26.43C105.491152 25.91 104.958618 25.64 104.29788 25.64 103.873825 25.64 103.400461 25.72 102.858065 25.88 102.315668 26.04 101.694378 26.21 101.013917 26.37 100.323594 26.53 99.5346544 26.61 98.6470968 26.61L98.6470968 26.65zM109.495023 26.28L109.495023 25.9C110.037419 25.78 110.412166 25.54 110.619263 25.21 110.826359 24.88 110.934839 24.34 110.934839 23.62L110.934839 3.82C110.934839 3.09 110.826359 2.56 110.619263 2.23 110.412166 1.89 110.037419 1.66 109.495023 1.54L109.495023 1.16 116.112258 1.16 116.112258 1.54C115.569862 1.66 115.185253 1.9 114.968295 2.23 114.741475 2.57 114.632995 3.1 114.632995 3.82L114.632995 23.62C114.632995 24.35 114.741475 24.88 114.968295 25.21 115.195115 25.54 115.569862 25.78 116.112258 25.9L116.112258 26.28 109.495023 26.28zM130.431521 26.28L128.804332 26.17C127.916774 26.12 127.137696 25.99 126.476959 25.78 125.816221 25.57 125.175207 25.21 124.573641 24.71 123.972074 24.21 123.321198 23.52 122.630876 22.65 122.137788 22.03 121.565806 21.28 120.934654 20.4 120.293641 19.53 119.623041 18.6 118.932719 17.62 118.242396 16.64 117.571797 15.69 116.930783 14.77 116.28977 13.85 115.717788 13.02 115.2247 12.29L120.737419 6.63C121.654562 5.71 122.285714 4.98 122.640737 4.45 122.99576 3.92 123.173272 3.46 123.173272 3.06 123.173272 2.68 123.015484 2.38 122.70977 2.14 122.404055 1.9 121.910968 1.7 121.25023 1.52L121.25023 1.14 129.02129 1.14 129.02129 1.52C128.350691 1.77 127.680092 2.1 127.009493 2.51 126.329032 2.92 125.599263 3.47 124.810323 4.14 124.021382 4.82 123.074654 5.69 121.960276 6.77L116.526452 12.17 118.114194 9.84C118.952442 11.09 119.830138 12.4 120.737419 13.78 121.654562 15.16 122.551982 16.48 123.459263 17.76 124.356682 19.04 125.175207 20.19 125.914839 21.21 126.851705 22.46 127.680092 23.46 128.390138 24.21 129.100184 24.96 129.780645 25.52 130.421659 25.9L130.421659 26.28 130.431521 26.28zM139.080276 26.28L139.080276 25.9C139.593088 25.78 139.967834 25.55 140.194654 25.22 140.421475 24.9 140.529954 24.36 140.529954 23.61L140.529954 3.81C140.529954 3.06 140.421475 2.52 140.194654 2.2 139.967834 1.88 139.602949 1.65 139.080276 1.53L139.080276 1.15 146.111705 1.15 146.111705 1.53C145.401659 1.68 144.89871 1.93 144.632442 2.28 144.366175 2.63 144.228111 3.22 144.228111 4.04L144.228111 25.38 146.151152 25.38C147.876959 25.38 149.297051 25.14 150.401567 24.65 151.506083 24.16 152.413364 23.34 153.103687 22.19 153.794009 21.04 154.375853 19.49 154.839355 17.54L155.322581 17.54 154.395576 26.28 139.080276 26.28zM157.058249 26.28L157.058249 25.9C157.57106 25.78 157.945806 25.55 158.172627 25.22 158.399447 24.9 158.507926 24.36 158.507926 23.61L158.507926 3.81C158.507926 3.06 158.399447 2.52 158.172627 2.2 157.945806 1.88 157.580922 1.65 157.058249 1.53L157.058249 1.15 163.675484 1.15 163.675484 1.53C163.133088 1.65 162.748479 1.88 162.531521 2.2 162.3047 2.53 162.196221 3.06 162.196221 3.81L162.196221 23.61C162.196221 24.36 162.3047 24.9 162.531521 25.22 162.758341 25.55 163.133088 25.77 163.675484 25.9L163.675484 26.28 157.058249 26.28zM166.417051 26.28L166.417051 25.9C166.929862 25.78 167.304608 25.55 167.531429 25.22 167.758249 24.9 167.866728 24.36 167.866728 23.61L167.866728 3.81C167.866728 3.06 167.758249 2.52 167.531429 2.2 167.304608 1.88 166.939724 1.65 166.417051 1.53L166.417051 1.15 173.448479 1.15 173.448479 1.53C172.738433 1.68 172.235484 1.93 171.969217 2.28 171.702949 2.63 171.564885 3.22 171.564885 4.04L171.564885 25.38 173.487926 25.38C175.213733 25.38 176.633825 25.14 177.738341 24.65 178.842857 24.16 179.750138 23.34 180.440461 22.19 181.130783 21.04 181.712627 19.49 182.176129 17.54L182.659355 17.54 181.73235 26.28 166.417051 26.28zM184.385161 26.28L184.385161 25.9C184.897972 25.78 185.272719 25.55 185.499539 25.22 185.726359 24.9 185.834839 24.36 185.834839 23.61L185.834839 3.81C185.834839 3.06 185.726359 2.52 185.499539 2.2 185.272719 1.88 184.907834 1.65 184.385161 1.53L184.385161 1.15 191.002396 1.15 191.002396 1.53C190.46 1.65 190.075392 1.88 189.858433 2.2 189.631613 2.53 189.523134 3.06 189.523134 3.81L189.523134 23.61C189.523134 24.36 189.631613 24.9 189.858433 25.22 190.085253 25.55 190.46 25.77 191.002396 25.9L191.002396 26.28 184.385161 26.28zM205.124424 26.65C202.806912 26.65 200.755668 26.09 198.960829 24.98 197.175853 23.87 195.775484 22.34 194.759724 20.4 193.743963 18.46 193.241014 16.24 193.241014 13.74 193.241014 11.89 193.527005 10.18 194.089124 8.6 194.651244 7.02 195.459908 5.66 196.495392 4.49 197.530876 3.33 198.734009 2.41 200.104793 1.75 201.475576 1.09 202.954839.76 204.562304.76 205.528756.76 206.376866.84 207.116498 1 207.856129 1.16 208.507005 1.33 209.078986 1.49 209.641106 1.65 210.11447 1.73 210.489217 1.73 211.13023 1.73 211.643041 1.47 212.037512.94L212.333364.94 212.777143 8.82 212.372811 8.82C211.534562 6.52 210.439908 4.74 209.09871 3.47 207.757512 2.21 206.297972 1.58 204.71023 1.58 203.122488 1.58 201.899631 2.02 200.795115 2.89 199.690599 3.76 198.832627 5.02 198.221198 6.66 197.619631 8.3 197.313917 10.24 197.313917 12.49 197.313917 15.04 197.659078 17.32 198.349401 19.33 199.039724 21.34 199.97659 22.93 201.16 24.08 202.34341 25.23 203.684608 25.8 205.193456 25.8 206.998157 25.8 208.477419 25.15 209.631244 23.85 210.785069 22.55 211.810691 20.42 212.698249 17.47L213.142028 17.47 212.658802 26.43 212.362949 26.43C211.968479 25.91 211.435945 25.64 210.775207 25.64 210.351152 25.64 209.877788 25.72 209.335392 25.88 208.792995 26.04 208.171705 26.21 207.491244 26.37 206.800922 26.53 206.011982 26.61 205.124424 26.61L205.124424 26.65z" transform="translate(126 39)"/>
      <g transform="translate(127 75)">
        <polygon points="7.056 .88 8.597 .88 8.597 11.1 7.056 11.1 7.056 6.62 1.808 6.62 1.808 11.1 .267 11.1 .267 .88 1.808 .88 1.808 5.29 7.056 5.29"/>
        <polygon points="17.827 2.2 12.085 2.2 12.085 5.16 17.253 5.16 17.253 6.46 12.085 6.46 12.085 9.76 17.767 9.76 17.767 11.09 10.534 11.09 10.534 .87 17.817 .87 17.817 2.2"/>
        <path d="M26.690355 11.09L25.6033728 8.32 20.9886391 8.32 19.9214201 11.09 18.3205917 11.09 22.342426.87 24.1902959.87 28.3109467 11.09 26.6804734 11.09 26.690355 11.09zM25.0895266 7L24.2495858 4.84C23.8938462 3.96 23.5776331 3.11 23.3108284 2.29L23.2218935 2.29C23.0440237 2.86 22.7376923 3.71 22.3127811 4.83L21.4728402 7.01 25.079645 7.01 25.0895266 7zM37.9159172 5.98C37.9159172 7.67 37.4613609 8.95 36.5522485 9.81 35.6431361 10.67 34.407929 11.09 32.8367456 11.09L29.2694675 11.09 29.2694675.87 32.8367456.87C34.407929.87 35.6431361 1.31 36.5522485 2.18 37.4613609 3.05 37.9159172 4.32 37.9159172 5.98zM35.4257396 8.82C36.0285207 8.19 36.3348521 7.25 36.3348521 5.98 36.3348521 4.71 36.0285207 3.76 35.415858 3.13 34.8031953 2.51 33.9336095 2.2 32.8169822 2.2L30.8208876 2.2 30.8208876 9.76 32.8268639 9.76C33.9533728 9.76 34.8130769 9.45 35.4257396 8.82L35.4257396 8.82zM49.3094675 11.09L48.459645 10.13C48.0347337 10.52 47.5604142 10.82 47.0268047 11.02 46.4931953 11.23 45.9398225 11.33 45.3666864 11.33 44.3884024 11.33 43.5978698 11.09 42.9950888 10.61 42.3923077 10.13 42.1057396 9.49 42.1057396 8.67 42.1057396 7.99 42.3330178 7.4 42.787574 6.91 43.2421302 6.42 43.8745562 6.09 44.6848521 5.94L44.6848521 5.87C44.1215976 5.29 43.7164497 4.79 43.4891716 4.37 43.2618935 3.95 43.1433136 3.52 43.1433136 3.09 43.1433136 2.61 43.2618935 2.19 43.4990533 1.81 43.736213 1.43 44.0721893 1.13 44.4971006.92 44.9318935.71 45.4160947.6 45.9694675.6 46.5228402.6 46.9675148.7 47.392426.91 47.8074556 1.11 48.143432 1.4 48.3805917 1.76 48.6177515 2.12 48.746213 2.54 48.746213 2.99 48.746213 3.56 48.5386982 4.08 48.113787 4.54 47.6987574 5 47.0663314 5.3 46.2263905 5.46L46.2263905 5.53 46.1967456 5.53 48.3707101 8C48.6375148 7.44 48.775858 6.79 48.7857396 6.06L50.1889349 6.06C50.129645 7.25 49.8430769 8.25 49.3193491 9.08L51.0980473 11.11 49.3094675 11.11 49.3094675 11.09zM44.8923669 6.08C44.427929 6.32 44.082071 6.64 43.8350296 7.02 43.5978698 7.4 43.4694083 7.8 43.4694083 8.21 43.4694083 8.72 43.6472781 9.14 43.9832544 9.49 44.3291124 9.84 44.8330769 10.01 45.4852663 10.01 46.2856805 10.01 46.9773964 9.72 47.5702959 9.13L44.8726036 6.08 44.8923669 6.08zM44.6156805 3.12C44.6156805 3.4 44.7046154 3.7 44.9022485 4 45.09 4.31 45.4556213 4.74 46.0089941 5.29 46.8884615 4.7 47.3331361 3.97 47.3331361 3.12 47.3331361 2.76 47.2046746 2.45 46.9576331 2.2 46.7105917 1.95 46.384497 1.82 45.9793491 1.82 45.5742012 1.82 45.2283432 1.95 44.9813018 2.2 44.744142 2.45 44.6156805 2.76 44.6156805 3.12zM56.78 7.02L56.78 11.09 55.2483432 11.09 55.2483432.87 57.0369231.87 60.436213 6.08 61.098284 7.12C61.6417751 7.95 62.0172781 8.54 62.2247929 8.89L62.2840828 8.89C62.2445562 7.83 62.2247929 6.76 62.2247929 5.66L62.2247929.87 63.7564497.87 63.7564497 11.09 61.9777515 11.09 58.9934911 6.49 58.8156213 6.23C57.9756805 4.94 57.2839645 3.86 56.7701183 3L56.7009467 3C56.750355 3.97 56.7701183 5.3 56.7701183 7.01L56.78 7.02z"/>
        <polygon points="72.986 2.2 67.245 2.2 67.245 5.16 72.413 5.16 72.413 6.46 67.245 6.46 67.245 9.76 72.927 9.76 72.927 11.09 65.693 11.09 65.693 .87 72.976 .87 72.976 2.2"/>
        <path d="M82.5810059 9.37C82.1956213 9.98 81.6620118 10.46 80.9999408 10.81 80.3378698 11.16 79.5671006 11.33 78.6876331 11.33 77.7291124 11.33 76.8792899 11.11 76.1381657 10.67 75.3970414 10.23 74.833787 9.61 74.4385207 8.8 74.0333728 7.99 73.8357396 7.04 73.8357396 5.95 73.8357396 4.86 74.0333728 3.92 74.4385207 3.12 74.833787 2.32 75.3970414 1.71 76.128284 1.28 76.8595266.85 77.7093491.64 78.6777515.64 79.5473373.64 80.3279882.81 80.9900592 1.16 81.6521302 1.51 82.1857396 1.98 82.5810059 2.6 82.9762722 3.21 83.213432 3.91 83.2924852 4.7L81.6916568 4.7C81.5730769 3.9 81.2568639 3.25 80.7331361 2.74 80.2094083 2.23 79.527574 1.98 78.6777515 1.98 78.0354438 1.98 77.4623077 2.14 76.9682249 2.45 76.474142 2.77 76.0887574 3.22 75.8219527 3.82 75.5551479 4.42 75.4168047 5.13 75.4168047 5.94 75.4168047 6.75 75.5551479 7.47 75.8219527 8.08 76.0887574 8.69 76.474142 9.16 76.9682249 9.48 77.4623077 9.81 78.0354438 9.97 78.6777515 9.97 79.5078107 9.97 80.1797633 9.71 80.7034911 9.2 81.2272189 8.69 81.5533136 8.04 81.6817751 7.25L83.2826036 7.25C83.1936686 8.04 82.9565089 8.74 82.5711243 9.35L82.5810059 9.37zM90.8618343 5.6C91.2669822 5.89 91.5831953 6.35 91.8104734 6.98L93.3421302 11.1 91.7413018 11.1 90.4863314 7.67C90.2985799 7.17 90.0910651 6.84 89.8539053 6.67 89.6167456 6.5 89.2610059 6.41 88.796568 6.41L87.8281657 6.41 86.2965089 8.05 86.2965089 11.1 84.7549704 11.1 84.7549704.88 86.2965089.88 86.2372189 6.15 86.3261538 6.18C86.9684615 5.39 87.818284 4.44 88.8657396 3.32L91.1187574.88 93.0061538.88 90.6345562 3.41C90.1701183 3.92 89.6365089 4.48 89.0139645 5.1L89.0436095 5.17 89.172071 5.17C89.8835503 5.17 90.4369231 5.31 90.842071 5.6L90.8618343 5.6z"/>
      </g>
      <path d="M23.6382955 40.5143182L23.6382955 60.9889773C18.0426136 53.7620455 9.86659091 47.6028409.0692045455 47.6028409L.0692045455 78.5175C.0692045455 83.4409091 4.01386364 86.9011364 8.72965909 86.9011364L38.5667045 86.9011364 38.5667045 55.4822727C38.5667045 47.0986364 32.1207955 40.5143182 23.6382955 40.5143182zM62.9069318 60.9889773L62.9069318 40.5143182C54.4244318 40.5143182 47.9785227 47.0393182 47.9785227 55.4822727L47.9785227 86.9011364 77.8155682 86.9011364C82.5313636 86.9011364 86.4760227 83.4409091 86.4760227 78.5175L86.4760227 47.6028409C76.6786364 47.6028409 68.5026136 53.7620455 62.9069318 60.9889773L62.9069318 60.9889773z"/>
      <circle cx="43.273" cy="18.003" r="17.637"/>
    </g>
    <path fill="#23224C" fill-rule="nonzero" d="M222.092,88.362 L223.45,84.344 L221.882,84.344 L221,88.362 L222.092,88.362 Z M229.274,86.024 L229.274,82.216 L231.934,82.216 C232.354,82.216 232.678333,82.2533334 232.907,82.328 C233.135667,82.4026666 233.308333,82.531 233.425,82.713 C233.541667,82.895 233.632667,83.168 233.698,83.532 L234.146,86.024 L235.672,86.024 L235.112,83.112 C234.990667,82.4586666 234.780667,81.992 234.482,81.712 C234.183333,81.432 233.702667,81.278 233.04,81.25 L233.04,81.152 C233.758667,81.1053334 234.337333,80.8533334 234.776,80.396 C235.214667,79.9386666 235.434,79.3693334 235.434,78.688 C235.434,77.9413334 235.144667,77.344 234.566,76.896 C233.987333,76.448 233.208,76.224 232.228,76.224 L227.776,76.224 L227.776,86.024 L229.274,86.024 Z M231.976,80.998 L229.274,80.998 L229.274,77.498 L231.976,77.498 C232.573333,77.498 233.051667,77.652 233.411,77.96 C233.770333,78.268 233.95,78.6786666 233.95,79.192 C233.95,79.7333334 233.770333,80.1696666 233.411,80.501 C233.051667,80.8323334 232.573333,80.998 231.976,80.998 Z M238.36,86.024 L238.36,81.726 L243.456,81.726 L243.456,86.024 L244.954,86.024 L244.954,76.224 L243.456,76.224 L243.456,80.452 L238.36,80.452 L238.36,76.224 L236.862,76.224 L236.862,86.024 L238.36,86.024 Z M248.188,86.024 L248.188,76.224 L246.69,76.224 L246.69,86.024 L248.188,86.024 Z M251.408,86.024 L251.408,82.118 C251.408,80.4753334 251.384667,79.1966666 251.338,78.282 L251.408,78.268 C251.912,79.0893334 252.574667,80.1206666 253.396,81.362 L253.564,81.614 L256.462,86.024 L258.184,86.024 L258.184,76.224 L256.7,76.224 L256.7,80.816 C256.7,81.8706666 256.718667,82.8973334 256.756,83.896 L256.7,83.91 C256.494667,83.574 256.130667,83.0093334 255.608,82.216 L254.964,81.222 L251.66,76.224 L249.924,76.224 L249.924,86.024 L251.408,86.024 Z M264.358,86.248 C265.31,86.248 266.152333,86.038 266.885,85.618 C267.617667,85.198 268.189333,84.5983334 268.6,83.819 C269.010667,83.0396666 269.216,82.132 269.216,81.096 C269.216,80.06 269.010667,79.1593334 268.6,78.394 C268.189333,77.6286666 267.617667,77.0383334 266.885,76.623 C266.152333,76.2076666 265.31,76 264.358,76 C263.406,76 262.563667,76.2076666 261.831,76.623 C261.098333,77.0383334 260.526667,77.6286666 260.116,78.394 C259.705333,79.1593334 259.5,80.06 259.5,81.096 C259.5,82.132 259.705333,83.0396666 260.116,83.819 C260.526667,84.5983334 261.098333,85.198 261.831,85.618 C262.563667,86.038 263.406,86.248 264.358,86.248 Z M264.358,84.946 C263.714,84.946 263.14,84.792 262.636,84.484 C262.132,84.176 261.74,83.7326666 261.46,83.154 C261.18,82.5753334 261.04,81.8893334 261.04,81.096 C261.04,80.3213334 261.18,79.647 261.46,79.073 C261.74,78.499 262.132,78.058 262.636,77.75 C263.14,77.442 263.714,77.288 264.358,77.288 C265.002,77.288 265.573667,77.442 266.073,77.75 C266.572333,78.058 266.962,78.499 267.242,79.073 C267.522,79.647 267.662,80.3213334 267.662,81.096 C267.662,81.8893334 267.522,82.5753334 267.242,83.154 C266.962,83.7326666 266.572333,84.176 266.073,84.484 C265.573667,84.792 265.002,84.946 264.358,84.946 Z M277.07,86.024 L277.07,84.75 L272.03,84.75 L272.03,76.224 L270.532,76.224 L270.532,86.024 L277.07,86.024 Z M282.628,86.248 C283.58,86.248 284.422333,86.038 285.155,85.618 C285.887667,85.198 286.459333,84.5983334 286.87,83.819 C287.280667,83.0396666 287.486,82.132 287.486,81.096 C287.486,80.06 287.280667,79.1593334 286.87,78.394 C286.459333,77.6286666 285.887667,77.0383334 285.155,76.623 C284.422333,76.2076666 283.58,76 282.628,76 C281.676,76 280.833667,76.2076666 280.101,76.623 C279.368333,77.0383334 278.796667,77.6286666 278.386,78.394 C277.975333,79.1593334 277.77,80.06 277.77,81.096 C277.77,82.132 277.975333,83.0396666 278.386,83.819 C278.796667,84.5983334 279.368333,85.198 280.101,85.618 C280.833667,86.038 281.676,86.248 282.628,86.248 Z M282.628,84.946 C281.984,84.946 281.41,84.792 280.906,84.484 C280.402,84.176 280.01,83.7326666 279.73,83.154 C279.45,82.5753334 279.31,81.8893334 279.31,81.096 C279.31,80.3213334 279.45,79.647 279.73,79.073 C280.01,78.499 280.402,78.058 280.906,77.75 C281.41,77.442 281.984,77.288 282.628,77.288 C283.272,77.288 283.843667,77.442 284.343,77.75 C284.842333,78.058 285.232,78.499 285.512,79.073 C285.792,79.647 285.932,80.3213334 285.932,81.096 C285.932,81.8893334 285.792,82.5753334 285.512,83.154 C285.232,83.7326666 284.842333,84.176 284.343,84.484 C283.843667,84.792 283.272,84.946 282.628,84.946 Z M292.904,86.248 C294.668,86.248 295.820667,85.4406666 296.362,83.826 L296.446,83.826 L296.558,86.024 L297.93,86.024 L297.93,80.928 L292.764,80.928 L292.764,82.146 L296.474,82.146 L296.474,82.342 C296.464667,82.7806666 296.327,83.203 296.061,83.609 C295.795,84.015 295.426333,84.3416666 294.955,84.589 C294.483667,84.8363334 293.958667,84.96 293.38,84.96 C292.204,84.96 291.333667,84.603 290.769,83.889 C290.204333,83.175 289.922,82.2533334 289.922,81.124 C289.922,80.0133334 290.197333,79.0986666 290.748,78.38 C291.298667,77.6613334 292.143333,77.2973334 293.282,77.288 C294.084667,77.288 294.735667,77.5096666 295.235,77.953 C295.734333,78.3963334 296.054,78.968 296.194,79.668 L297.748,79.668 C297.664,79.0053334 297.44,78.3963334 297.076,77.841 C296.712,77.2856666 296.208,76.84 295.564,76.504 C294.92,76.168 294.159333,76 293.282,76 C292.199333,76 291.291667,76.2263334 290.559,76.679 C289.826333,77.1316666 289.280333,77.7453334 288.921,78.52 C288.561667,79.2946666 288.382,80.1626666 288.382,81.124 C288.382,82.1133334 288.561667,82.9953334 288.921,83.77 C289.280333,84.5446666 289.800667,85.1513334 290.482,85.59 C291.163333,86.0286666 291.970667,86.248 292.904,86.248 Z M304.02,86.024 L304.02,82.076 L307.73,76.224 L306.064,76.224 L305.084,77.82 C304.458667,78.8373334 303.88,79.8173334 303.348,80.76 L303.25,80.76 C303.054,80.396 302.820667,79.99 302.55,79.542 C302.279333,79.094 302.083333,78.7673334 301.962,78.562 L301.5,77.806 L300.506,76.224 L298.812,76.224 L302.522,82.076 L302.522,86.024 L304.02,86.024 Z"/>
  </g>
</svg>
